<?xml version="1.0" encoding="UTF-8"?>
<svg width="618" height="343" version="1.1" viewBox="0 0 163 90.7" xml:space="preserve" xmlns="http://www.w3.org/2000/svg"><circle cx="134" cy="-54.4" r=".022" display="none" stroke="#000" stroke-width=".265"/><circle cx="-80.6" cy="-113" r=".022" stroke="#000" stroke-width=".265"/><g transform="translate(27.9 -20.1)"><circle cx="135" cy="74" r=".022" display="none" stroke="#000" stroke-width=".265"/><circle cx="-80.1" cy="15.8" r=".022" stroke="#000" stroke-width=".265"/><path d="m34.7 99.3c-5.98-0.495-11.9-2.05-17.1-4.5-1.74-0.818-5.64-3-5.52-3.09 0.0281-0.0202 0.89 0.0303 1.92 0.112 2.27 0.181 6.13-0.076 8.61-0.573 4.67-0.936 8.66-2.59 12.7-5.27l2.04-1.35-1.69-0.225c-1.88-0.25-3.61-0.729-5.13-1.42-4-1.82-7.6-5.67-9.01-9.66l-0.239-0.677 0.927 0.136c1.37 0.201 3.57 0.154 5.24-0.113 0.81-0.129 1.44-0.27 1.39-0.313-0.0431-0.043-0.546-0.197-1.12-0.342-1.63-0.413-4.45-1.88-6.02-3.13-2.44-1.94-4.56-4.94-5.56-7.87-0.44-1.29-0.912-3.84-0.912-4.93v-0.762l1.34 0.618c1.58 0.73 3.42 1.23 5.14 1.39l1.24 0.117-0.533-0.391c-1.27-0.929-3.77-3.69-4.6-5.08-1-1.68-1.96-4.33-2.26-6.24-0.313-2.01-0.113-5.24 0.442-7.12 0.472-1.6 1.49-4.04 1.68-4.03 0.0602 0.0037 0.389 0.368 0.731 0.809 1.12 1.44 5.56 5.62 7.64 7.19 7.14 5.38 15.2 8.59 24 9.61 3.34 0.386 3.21 0.4 3-0.298-0.0945-0.317-0.22-1.38-0.279-2.36-0.395-6.57 3.24-13.1 9.01-16.1 6.41-3.36 14.4-2.42 19.5 2.31l1.18 1.08 1.42-0.332c2.77-0.647 5.78-1.8 8.31-3.18 0.66-0.361 1.2-0.634 1.2-0.606 0 0.0279-0.236 0.622-0.525 1.32-1.14 2.76-3.76 6-6.04 7.47-0.492 0.318-0.874 0.597-0.85 0.62 0.0926 0.088 2.93-0.467 4.64-0.908 0.983-0.253 2.47-0.724 3.3-1.05s1.55-0.556 1.59-0.521c0.35 0.317-5.73 6.82-7.49 8.02l-0.844 0.573-5.33e-4 2.07c-0.0031 10.7-3.71 21.6-10.4 30.5-1.66 2.2-6.11 6.79-8.12 8.36-8.45 6.61-18.2 9.97-29.3 10.1-2.05 0.0319-4.13 0.0249-4.62-0.0155zm10.8-3.26c9.7-1.43 18.2-5.67 25-12.4 8.9-8.87 14-21.6 13.8-34.1l-0.0443-2.65 1.32-0.944c1.85-1.32 1.84-1.29 0.327-1.17-1.32 0.111-3.07-0.133-4.9-0.684l-0.746-0.224 2.48-2.28c1.37-1.26 2.45-2.32 2.41-2.36-0.0423-0.0422-0.878 0.0942-1.86 0.303l-1.78 0.38-1.21-1.23c-7.19-7.29-19.1-5.32-23.4 3.88-1.03 2.18-1.25 3.28-1.23 6.1 0.0194 2.11 0.102 2.8 0.552 4.61 0.291 1.17 0.515 2.14 0.499 2.17-0.0994 0.129-6.63-0.377-8.7-0.674-10.3-1.48-20.1-6.21-27.9-13.5-0.962-0.895-1.5-1.28-1.58-1.14-0.0714 0.115-0.168 1.19-0.214 2.39-0.102 2.64 0.314 4.75 1.37 6.92 0.767 1.58 2.42 3.74 3.58 4.68 1.04 0.844 5.3 3.68 7.59 5.05l1.83 1.1-1.21 0.084c-3.13 0.217-10.6-0.0974-12.3-0.518-0.543-0.136-0.535 0.0667 0.0565 1.42 1.56 3.56 4.86 6.63 8.41 7.83 0.696 0.235 3.87 0.884 7.05 1.44l5.78 1.01-5.78 1.92c-3.88 1.29-6.3 1.99-7.35 2.14l-1.56 0.225 1.51 1.51c1.65 1.66 3.01 2.6 4.82 3.35 2.14 0.882 3.35 1.05 8.37 1.17 2.56 0.0609 4.68 0.121 4.7 0.134 0.0183 0.0129-0.932 0.779-2.11 1.7-6.11 4.78-7.78 5.9-11.2 7.52-2.22 1.05-5.62 2.23-7.46 2.58-0.802 0.154-1.12 0.28-0.947 0.377 1.07 0.596 7.37 1.93 10.7 2.26 2.51 0.252 8.51 0.0641 11.3-0.355z" stroke-width=".177"/></g></svg>
