<?xml version="1.0" encoding="UTF-8"?>
<svg width="618" height="343" version="1.1" viewBox="0 0 163 90.7" xml:space="preserve" xmlns="http://www.w3.org/2000/svg"><circle cx="134" cy="-54.4" r=".022" display="none" stroke="#000" stroke-width=".265"/><circle cx="-80.6" cy="-113" r=".022" stroke="#000" stroke-width=".265"/><g transform="matrix(1.03 0 0 -1.02 29.2 119)"><circle cx="135" cy="74" r=".022" display="none" stroke="#000" stroke-width=".265"/><circle cx="-80.1" cy="15.8" r=".022" stroke="#000" stroke-width=".265"/><path d="m87.4 45.7c4.92 3.44 9.24 7.75 12.5 12.5 1.09 1.58 3.36 5.43 3.21 5.45-0.0344 0.0033-0.754-0.474-1.6-1.06-1.87-1.3-5.34-3.02-7.73-3.84-4.5-1.54-8.79-2.12-13.6-1.84l-2.45 0.139 1.35 1.04c1.5 1.16 2.76 2.45 3.72 3.8 2.55 3.58 3.71 8.73 2.93 12.9l-0.134 0.705-0.732-0.584c-1.08-0.864-3.01-1.93-4.59-2.54-0.765-0.296-1.38-0.489-1.36-0.431 0.0156 0.0589 0.373 0.445 0.794 0.857 1.2 1.17 2.9 3.87 3.63 5.73 1.13 2.9 1.46 6.57 0.845 9.6-0.27 1.34-1.15 3.78-1.69 4.72l-0.384 0.659-0.848-1.21c-1-1.43-2.34-2.78-3.75-3.79l-1.02-0.727 0.264 0.606c0.628 1.44 1.4 5.09 1.42 6.7 0.0213 1.95-0.483 4.73-1.19 6.53-0.742 1.9-2.54 4.59-3.96 5.93-1.21 1.14-3.33 2.74-3.48 2.64-0.0502-0.0335-0.151-0.514-0.225-1.07-0.241-1.81-1.98-7.65-2.99-10.1-3.46-8.24-8.78-15.1-15.9-20.4-2.7-2.02-2.57-1.96-2.74-1.25-0.0776 0.321-0.503 1.3-0.946 2.18-2.97 5.88-9.38 9.67-15.9 9.38-7.23-0.323-13.6-5.14-15.7-11.8l-0.472-1.53-1.4-0.428c-2.72-0.833-5.91-1.35-8.78-1.43-0.752-0.0196-1.36-0.0554-1.34-0.0795 0.014-0.0241 0.517-0.419 1.12-0.877 2.37-1.81 6.27-3.29 8.98-3.42 0.585-0.0272 1.06-0.0758 1.05-0.108-0.0357-0.123-2.77-1.07-4.47-1.55-0.977-0.276-2.5-0.617-3.38-0.758-0.882-0.141-1.62-0.297-1.63-0.348-0.143-0.45 8.38-3.01 10.5-3.16l1.02-0.0704 1.04-1.79c5.41-9.28 14.1-16.8 24.4-21.1 2.54-1.07 8.7-2.79 11.2-3.14 10.6-1.46 20.7 0.516 30.4 5.98 1.79 1 3.58 2.06 3.98 2.34zm-11-2.62c-9.1-3.64-18.6-4.28-27.8-1.86-12.2 3.19-23 11.6-29.1 22.5l-1.3 2.32-1.62 0.15c-2.26 0.21-2.24 0.191-0.869 0.842 1.2 0.567 2.58 1.66 3.89 3.06l0.532 0.569-3.3 0.723c-1.81 0.397-3.28 0.77-3.27 0.828 0.0154 0.0578 0.806 0.36 1.76 0.672l1.73 0.567 0.43 1.67c2.55 9.92 13.8 14.2 22.2 8.43 1.99-1.36 2.73-2.21 4.13-4.65 1.04-1.83 1.32-2.47 1.84-4.26 0.337-1.16 0.633-2.11 0.659-2.12 0.151-0.0619 5.54 3.66 7.18 4.96 8.17 6.47 14.2 15.5 17.3 25.7 0.381 1.26 0.65 1.86 0.794 1.78 0.12-0.0637 0.743-0.944 1.39-1.96 1.42-2.23 2.12-4.26 2.3-6.66 0.132-1.75-0.211-4.45-0.742-5.85-0.478-1.26-2.73-5.85-4.02-8.19l-1.03-1.87 1.09 0.537c2.82 1.39 9.09 5.4 10.3 6.61 0.401 0.391 0.496 0.212 0.664-1.25 0.443-3.86-0.863-8.18-3.33-11-0.484-0.553-2.9-2.71-5.37-4.79l-4.49-3.79 5.96 1.26c4 0.843 6.44 1.45 7.43 1.85l1.47 0.593-0.541-2.07c-0.593-2.26-1.29-3.77-2.48-5.32-1.41-1.84-2.37-2.59-6.65-5.22-2.19-1.34-3.98-2.46-3.99-2.48-0.0093-0.0203 1.2-0.204 2.68-0.409 7.68-1.06 9.69-1.19 13.5-0.865 2.44 0.208 5.98 0.902 7.75 1.52 0.771 0.27 1.11 0.321 1.01 0.151-0.624-1.05-5.4-5.38-8.09-7.33-2.04-1.48-7.32-4.34-9.98-5.4z" stroke-width=".177"/></g></svg>
