<?xml version="1.0" encoding="UTF-8" standalone="no"?>
<svg
   width="617.72601"
   height="342.79181"
   version="1.1"
   viewBox="0 0 163.44 90.697001"
   xml:space="preserve"
   id="svg8"
   sodipodi:docname="L08-Vogel.svg"
   inkscape:version="1.2.1 (9c6d41e410, 2022-07-14)"
   xmlns:inkscape="http://www.inkscape.org/namespaces/inkscape"
   xmlns:sodipodi="http://sodipodi.sourceforge.net/DTD/sodipodi-0.dtd"
   xmlns="http://www.w3.org/2000/svg"
   xmlns:svg="http://www.w3.org/2000/svg"><defs
     id="defs12" /><sodipodi:namedview
     id="namedview10"
     pagecolor="#ffffff"
     bordercolor="#000000"
     borderopacity="0.25"
     inkscape:showpageshadow="2"
     inkscape:pageopacity="0.0"
     inkscape:pagecheckerboard="false"
     inkscape:deskcolor="#d1d1d1"
     inkscape:document-units="px"
     showgrid="false"
     inkscape:zoom="1.1893044"
     inkscape:cx="253.92994"
     inkscape:cy="177.41463"
     inkscape:window-width="2560"
     inkscape:window-height="1334"
     inkscape:window-x="-11"
     inkscape:window-y="-11"
     inkscape:window-maximized="1"
     inkscape:current-layer="g206" /><circle
     cx="134.20578"
     cy="-54.412853"
     r="0.021962"
     display="none"
     stroke="#000000"
     stroke-width="0.26458"
     id="circle2" /><circle
     cx="-80.636223"
     cy="-112.61584"
     r="0.021962"
     stroke="#000000"
     stroke-width="0.26458"
     id="circle4" /><g
     id="g206"
     transform="translate(27.933962,-20.086233)"><circle
       cx="134.71001"
       cy="74.031998"
       r="0.021962"
       display="none"
       stroke="#000000"
       stroke-width="0.26458"
       id="circle191" /><circle
       cx="-80.132004"
       cy="15.829"
       r="0.021962"
       stroke="#000000"
       stroke-width="0.26458"
       id="circle193" /><path
       style="fill:#000000;stroke-width:0.177397"
       d="m 34.688429,99.334553 c -5.98319,-0.49503 -11.883918,-2.046949 -17.094283,-4.49588 -1.74142,-0.818487 -5.641621,-3.003835 -5.518591,-3.09216 0.02808,-0.02016 0.890455,0.03032 1.916396,0.112168 2.270226,0.18112 6.130643,-0.07596 8.610836,-0.573426 4.665292,-0.935747 8.658622,-2.591142 12.707425,-5.267744 l 2.043,-1.350595 -1.687696,-0.224725 c -1.877318,-0.249973 -3.61301,-0.729243 -5.125103,-1.415174 -4.002461,-1.815637 -7.601994,-5.674828 -9.013338,-9.663523 l -0.239379,-0.67653 0.926671,0.135987 c 1.370764,0.201156 3.573417,0.153793 5.241565,-0.112707 0.809852,-0.129382 1.437176,-0.270421 1.394053,-0.31342 -0.04312,-0.043 -0.545844,-0.196754 -1.117155,-0.341675 -1.626255,-0.412522 -4.453635,-1.880756 -6.024336,-3.128382 -2.440055,-1.938166 -4.563428,-4.944125 -5.561004,-7.872453 -0.440263,-1.292363 -0.911974,-3.843015 -0.911974,-4.931244 v -0.762411 l 1.341546,0.618054 c 1.584252,0.72987 3.420195,1.225006 5.142759,1.386952 l 1.243565,0.116912 -0.532957,-0.390558 c -1.267813,-0.929072 -3.770417,-3.694479 -4.597586,-5.080384 -1.001307,-1.677671 -1.95993,-4.327313 -2.257494,-6.239728 -0.313208,-2.012973 -0.112845,-5.241295 0.441938,-7.120629 0.471938,-1.598699 1.493668,-4.044354 1.684733,-4.032648 0.0602,0.0037 0.389255,0.36763 0.731235,0.808758 1.11914,1.443606 5.555507,5.617155 7.640733,7.188084 7.135633,5.375712 15.162466,8.592474 23.981354,9.610555 3.344995,0.386157 3.209463,0.399634 3.00105,-0.298416 -0.09454,-0.316642 -0.220122,-1.378782 -0.279075,-2.360311 -0.394868,-6.574075 3.243099,-13.076423 9.005295,-16.095685 6.413563,-3.360566 14.377094,-2.417931 19.518321,2.310363 l 1.175931,1.081482 1.421217,-0.33209 c 2.766876,-0.646524 5.783872,-1.803247 8.30524,-3.184247 0.659533,-0.361238 1.199152,-0.633972 1.199152,-0.606075 0,0.0279 -0.236162,0.621781 -0.524806,1.319741 -1.139509,2.75541 -3.763178,6.000392 -6.041956,7.472753 -0.491839,0.317787 -0.874352,0.596721 -0.850028,0.619854 0.09258,0.08805 2.930904,-0.466867 4.643309,-0.907808 0.982958,-0.25311 2.468788,-0.723636 3.30184,-1.045616 0.833052,-0.32198 1.54668,-0.556421 1.58584,-0.52098 0.349748,0.316536 -5.725529,6.82107 -7.488177,8.017266 l -0.843848,0.572664 -5.33e-4,2.072916 c -0.0031,10.744567 -3.707654,21.568894 -10.439764,30.504299 -1.658152,2.200835 -6.114465,6.78579 -8.124281,8.358805 -8.449676,6.613285 -18.153206,9.971685 -29.312609,10.145122 -2.051882,0.03189 -4.130413,0.02491 -4.618956,-0.01552 z M 45.501927,96.075316 C 55.198952,94.643074 63.741525,90.40489 70.485342,83.680418 79.384469,74.806818 84.527658,62.129202 84.31824,49.583257 l -0.04431,-2.654356 1.32212,-0.943793 c 1.848961,-1.31988 1.841368,-1.292845 0.327288,-1.165224 -1.318552,0.111137 -3.067156,-0.132763 -4.903432,-0.683948 l -0.746349,-0.224027 2.484229,-2.282336 c 1.366325,-1.255286 2.449589,-2.316878 2.407251,-2.359093 -0.04234,-0.04222 -0.877763,0.0942 -1.856504,0.303158 l -1.77953,0.379913 -1.213765,-1.229882 c -7.191229,-7.286708 -19.053548,-5.323026 -23.410684,3.875393 -1.031035,2.17663 -1.25369,3.282115 -1.227735,6.095697 0.01945,2.108032 0.102232,2.798823 0.551951,4.605707 0.290991,1.169141 0.515341,2.143593 0.498556,2.165451 -0.09942,0.129461 -6.627788,-0.376807 -8.696008,-0.674366 C 37.714174,53.307203 27.95802,48.58604 20.089242,41.269922 c -0.962319,-0.894731 -1.496794,-1.280107 -1.582837,-1.141285 -0.07145,0.115277 -0.167769,1.18956 -0.214042,2.387293 -0.102081,2.642271 0.313942,4.747799 1.366367,6.915312 0.767461,1.580616 2.42322,3.743283 3.584399,4.681752 1.044684,0.844318 5.304851,3.678906 7.593968,5.052799 l 1.833536,1.100463 -1.211753,0.08397 c -3.131457,0.21701 -10.572067,-0.09735 -12.251321,-0.517606 -0.543358,-0.135983 -0.535281,0.06674 0.05646,1.417107 1.559969,3.559902 4.859012,6.631301 8.409245,7.828985 0.696299,0.2349 3.869128,0.883768 7.050732,1.441931 l 5.784735,1.014843 -5.784385,1.915078 c -3.882863,1.285527 -6.298789,1.989125 -7.349188,2.140329 l -1.564802,0.225252 1.507778,1.513891 c 1.651634,1.658329 3.011592,2.603411 4.816239,3.346969 2.141025,0.882156 3.349252,1.051021 8.373337,1.170273 2.56421,0.06087 4.67715,0.121201 4.695423,0.134077 0.01827,0.01288 -0.932443,0.779075 -2.112702,1.702663 -6.109065,4.780529 -7.776782,5.900479 -11.203325,7.523552 -2.217067,1.050172 -5.62003,2.22755 -7.464361,2.582565 -0.802457,0.154466 -1.11888,0.28033 -0.946535,0.376502 1.068923,0.596483 7.369849,1.932215 10.679266,2.263895 2.512458,0.251806 8.507238,0.06413 11.346454,-0.355219 z"
       id="path208" /></g></svg>
