<?xml version="1.0" encoding="UTF-8"?>
<svg width="243mm" height="212mm" version="1.1" viewBox="0 0 243 212" xml:space="preserve" xmlns="http://www.w3.org/2000/svg"><g transform="translate(2.91 -134)"><path d="m66.7 345c-0.841-0.136-2.45-1.73-2.45-2.42v-0.582l0.768 0.547c0.966 0.688 1.51 0.687 2.65-4e-3 2.52-1.54 4.26-3.52 4.26-4.85 0-1.32 0.716-2.51 1.96-3.27 0.966-0.587 1.2-0.871 1.2-1.49 0.0106-0.968-0.827-2.34-1.72-2.82-0.6-0.321-0.846-0.315-1.85 0.0455l-1.16 0.416 0.359-0.69c0.371-0.714 1.77-1.88 2.25-1.88 0.151 0 0.766 0.476 1.37 1.06 0.608 0.59 1.35 1.06 1.68 1.06 0.922 0 3.61-1.96 5.6-4.08 3.76-4.01 5.08-5.63 5.9-7.25 1.4-2.78 3.74-4.92 7.36-6.76 1.13-0.569 1.39-0.83 1.39-1.37 0-1.34-1.34-3.04-3.1-3.92-1.36-0.687-2.27-0.542-3.69 0.593-0.704 0.561-6.6 6.28-13.1 12.7-6.5 6.42-12 11.7-12.2 11.7-0.441 0-1.83-1.32-1.83-1.74 0-0.191 0.213-0.267 0.525-0.185 0.84 0.22 1.66-0.101 2.84-1.11 0.988-0.846 1.08-1.03 0.953-1.85-0.142-0.876-0.0301-1.02 3.2-4.13 1.84-1.77 3.31-3.26 3.27-3.3-0.0417-0.0417-0.923 0.344-1.96 0.858-2.58 1.28-3.01 1.14-1.79-0.601 0.665-0.951 1.31-1.52 2.19-1.91 0.683-0.309 1.71-1.04 2.28-1.62l1.04-1.06-0.47-0.986c-0.702-1.47-1.91-2.88-2.77-3.24-0.624-0.258-0.948-0.24-1.77 0.102-0.551 0.23-1.04 0.381-1.08 0.337-0.156-0.156 2.23-3.02 2.65-3.19 0.78-0.299 1.13 0.0969 2.25 2.58 1.08 2.38 2.56 4.29 3.17 4.09 0.157-0.0527 2.85-2.46 5.98-5.34 3.56-3.28 5.69-5.43 5.69-5.75 0-0.767-0.826-1.05-3.09-1.05-2.49-6e-3 -6.21-0.378-8.17-0.816-1.28-0.286-1.46-0.413-1.72-1.21-0.398-1.21-1.23-1.69-3.22-1.86-0.957-0.0832-2.19-0.409-2.9-0.766-0.683-0.342-2.29-0.945-3.57-1.34-2.22-0.685-2.56-0.716-7.09-0.652-2.62 0.037-7.74-0.0673-11.4-0.232-4.11-0.186-7.54-0.211-9.06-0.0679-2.42 0.229-2.45 0.225-2.45-0.358 0-0.324-0.0986-0.865-0.219-1.2-0.121-0.337-0.112-1.13 0.0199-1.76 0.201-0.963 0.386-1.21 1.16-1.53 3.24-1.35 11.7-2.05 25.6-2.11 11.2-0.0507 12.9-0.225 23.4-2.45 3.42-0.724 6.74-1.4 7.38-1.5l1.17-0.186-1.8-0.951c-0.991-0.523-2.21-1.34-2.71-1.81-0.874-0.824-0.906-0.921-0.788-2.39 0.0674-0.843 0.278-2.32 0.468-3.28 0.412-2.08 0.15-2.99-1.1-3.81-1.12-0.732-1.56-1.71-1.56-3.43 0-1.05-0.191-1.85-0.661-2.78-0.888-1.75-0.845-2.22 0.265-2.88 1.49-0.878 1.22-1.69-1.16-3.49-0.861-0.649-0.903-0.765-1.17-3.25l-0.279-2.57 1.08-1.12c1.33-1.38 1.67-2.03 1.67-3.15-0.0016-1.36-0.851-2.51-2.13-2.9-0.604-0.181-1.25-0.574-1.44-0.874-0.947-1.49-1.19-12.6-0.319-14.8 0.239-0.619 0.475-2.38 0.567-4.24 0.194-3.9 0.486-5.02 1.61-6.14 0.695-0.695 1.09-0.872 1.93-0.872 1.55 0 4.77 0.652 11.2 2.26 5.01 1.26 10.9 2.26 11.3 1.9 0.206-0.206-2.46-1.36-6.51-2.83-4.45-1.61-7.89-3.21-10.3-4.78-1.72-1.12-5.64-4.71-6.13-5.63-0.325-0.603-0.467-0.642 5.27 1.44 2.36 0.858 4.55 1.56 4.85 1.56 0.419 0-0.231-0.774-2.61-3.11-1.74-1.71-3.59-3.77-4.1-4.58-0.921-1.45-1.73-3.57-1.46-3.83 0.0761-0.0761 0.542 0.242 1.03 0.706 1.51 1.43 5.1 3.63 8.77 5.38 3.87 1.85 9.69 4.22 9.88 4.03 0.0674-0.0675-0.745-0.664-1.81-1.33-7.06-4.41-12.9-10-15.2-14.6l-0.68-1.36 0.758 0.7c1.33 1.23 4.44 3.08 9.01 5.37 4 2 14.5 6.76 14.9 6.76 0.0866 0-1.39-0.877-3.28-1.95-11.9-6.74-16.7-11.5-18.4-18.1-0.282-1.1-0.512-2.15-0.512-2.34s1.17 0.815 2.59 2.23c3.27 3.23 5.93 5.12 14.2 10.1 3.64 2.18 7.03 4.22 7.54 4.53l0.926 0.56-0.791-0.621c-4.53-3.55-7.7-6.4-11-9.89-5-5.3-8.01-10.1-11.1-17.6-0.724-1.76-1.32-3.25-1.32-3.31 0-0.0597 0.726 0.76 1.61 1.82 7.67 9.18 15.4 16.2 24.3 22.2l2.51 1.68-2.51-2.73c-5.95-6.46-9.64-11-13.2-16.3-6.38-9.55-9.92-19-9.83-26.3l0.031-2.57 0.518 2.25c1.62 7.02 2.68 9.71 5.51 14 2.02 3.04 3.26 4.55 14.2 17.3 5.24 6.1 9.69 10.8 10.2 10.8 0.137 0-0.625-1.18-1.7-2.61-3.42-4.59-7.35-11.2-10.6-18-5.4-11.1-8.15-20.8-7.65-27 0.0972-1.2 0.257-2.18 0.355-2.18 0.0979 0 0.402 0.804 0.676 1.79 1.12 4.03 6.02 18.4 7.27 21.4 0.742 1.75 1.88 4.09 2.53 5.2 0.962 1.64 1.4 2.12 2.33 2.58 1.55 0.752 2.16 0.741 1.93-0.0376-1.61-5.51-2.34-11.8-2.33-20.2 0.0123-8.85 0.829-15.3 2.25-17.9 0.727-1.32 4.42-3.77 4.42-2.94 0 0.111-0.521 1.22-1.16 2.47-2.27 4.45-3.08 8.12-3.08 14.1-5.3e-4 5.98 1.32 14.3 2.47 15.5 0.314 0.343 1.76 1.44 3.22 2.43 1.46 0.995 2.93 2.1 3.26 2.46 0.409 0.435 1.22 2.59 2.46 6.52 2.06 6.54 2.66 8.06 4.09 10.2 1.49 2.24 1.7 3.06 1.52 5.84-0.141 2.15-0.0933 2.55 0.432 3.64 0.508 1.05 0.701 1.22 1.39 1.22 0.652 0 0.766-0.0847 0.619-0.463-0.415-1.07-1.48-5.88-1.63-7.38-0.164-1.6-0.143-1.67 1.06-3.59l1.22-1.96 6e-3 -2.76c5e-3 -2.15 0.118-3 0.516-3.88 0.495-1.09 1.24-1.6 0.969-0.661-0.0727 0.255-0.277 2-0.454 3.88-0.625 6.62 0.0909 16 1.76 23.2 0.645 2.75 2.52 9.06 2.65 8.93 0.038-0.038 0.381-1.91 0.762-4.17 1.03-6.12 2.85-11.1 4.35-11.9 0.521-0.279 2.14-0.388 2.14-0.144 0 0.0724-0.418 0.714-0.93 1.43-1.97 2.74-3.68 7.42-4.55 12.5-0.294 1.7-0.439 4.11-0.446 7.41-0.01 4.74 0.0293 5.11 1.25 11.6 1.22 6.53 1.76 8.99 3.16 14.3 0.365 1.38 0.928 3.64 1.25 5.03 0.324 1.38 1.04 3.59 1.59 4.89 1.3 3.08 1.65 4.79 1.54 7.48-0.05 1.2-0.0313 2.15 0.0414 2.1 1.12-0.68 4.56-2.11 6.15-2.55 7.62-2.12 16.2-1.62 20.3 1.2 0.736 0.495 1.65 0.901 2.04 0.902 1.5 2e-3 5.71 0.832 8.08 1.59 1.71 0.546 3.17 1.26 4.7 2.27 1.22 0.813 1.98 1.39 1.69 1.28-3.71-1.4-8.67-1.89-11.9-1.17l-1.59 0.354 3.97 0.47c4.41 0.523 6.63 0.879 8.19 1.31 0.942 0.263 0.994 0.32 0.529 0.585-0.283 0.161-2.36 0.357-4.62 0.436l-4.1 0.143-2.25 1.34c-2.43 1.46-6 3.14-7.28 3.43-3.36 0.773-16.4 10.9-29.8 23.3-2.84 2.61-5.93 4.09-17.1 8.19-9.61 3.53-19.4 6.27-25.8 7.22-4.64 0.688-7.32 1.26-8.71 1.87-0.595 0.258-2.27 1.32-3.72 2.36-2.48 1.77-3.82 2.39-6.13 2.83-0.788 0.148-2.37 1.7-10.9 10.7-5.49 5.77-10.4 11-11 11.7-1.09 1.34-1.33 1.49-2.24 1.34z" stroke-width=".265"/></g></svg>
