<?xml version="1.0" encoding="UTF-8" standalone="no"?>
<!-- Created with Inkscape (http://www.inkscape.org/) -->

<svg
   xml:space="preserve"
   id="svg5"
   version="1.1"
   viewBox="0 0 600 800"
   height="800"
   width="600"
   inkscape:version="1.2.1 (9c6d41e410, 2022-07-14)"
   sodipodi:docname="Neu.svg"
   xmlns:inkscape="http://www.inkscape.org/namespaces/inkscape"
   xmlns:sodipodi="http://sodipodi.sourceforge.net/DTD/sodipodi-0.dtd"
   xmlns="http://www.w3.org/2000/svg"
   xmlns:svg="http://www.w3.org/2000/svg"><sodipodi:namedview
     id="namedview7"
     pagecolor="#ffffff"
     bordercolor="#000000"
     borderopacity="0.25"
     inkscape:showpageshadow="2"
     inkscape:pageopacity="0.0"
     inkscape:pagecheckerboard="0"
     inkscape:deskcolor="#d1d1d1"
     inkscape:document-units="px"
     showgrid="false"
     inkscape:zoom="0.80234375"
     inkscape:cx="98.461538"
     inkscape:cy="312.8335"
     inkscape:window-width="2560"
     inkscape:window-height="1334"
     inkscape:window-x="-11"
     inkscape:window-y="-11"
     inkscape:window-maximized="1"
     inkscape:current-layer="layer1" /><defs
     id="defs2" /><g
     inkscape:label="Ebene 1"
     inkscape:groupmode="layer"
     id="layer1"
     transform="translate(104.32327,-3.1937683)"><path
       style="fill:#000000"
       d="m 29.397909,665.54345 c -6.02997,-4.13762 -14.92384,-15.50234 -19.9554304,-25.49934 -1.21488,-2.41379 -4.40894,-6.58878 -7.09792,-9.27776 -3.559831,-3.55983 -5.305131,-6.32033 -6.419468,-10.15351 -2.16187,-7.43657 -2.519579,-13.66263 -0.996202,-17.33928 1.213297,-2.92827 1.12561,-3.33038 -1.199374,-5.5 -5.9354026,-5.53877 -8.6773966,-17.25498 -6.4590556,-27.59875 1.087572,-5.07117 1.041927,-5.25784 -2.677641,-10.95056 -6.619051,-10.13031 -10.807368,-21.34393 -15.240226,-40.80352 -2.788819,-12.2425 -3.021411,-16.8253 -0.875579,-17.25166 0.899098,-0.17864 2.154336,0.87178 2.959694,2.47677 4.893439,9.75206 18.548795,24.65229 30.4790716,33.25767 17.0796304,12.31963 34.0993004,18.56308 53.7088504,19.7024 22.38575,1.30061 45.543401,-5.00164 61.268061,-16.67384 16.49721,-12.24565 23.8433,-26.88833 20.31809,-40.49926 l -1.295,-5 -10,-0.63755 c -11.38881,-0.72609 -18.19871,-2.91724 -27.145821,-8.73443 -7.47748,-4.86167 -13.85357,-11.4843 -18.62327,-19.34336 -2.24013,-3.69107 -5.99331,-7.95607 -9.25208,-10.51376 -9.41974,-7.39323 -15.41779,-17.68159 -13.88009,-23.80828 0.57294,-2.28278 -0.22835,-3.45966 -6.32398,-9.2883 -12.35763,-11.81636 -19.41059,-22.4018 -23.71798,-35.59714 -1.54948,-4.74668 -3.84277,-9.26164 -5.96162,-11.73704 -5.45836,-6.37687 -10.13309,-16.3019 -14.5315804,-30.85238 -4.63821,-15.3435 -5.94934001,-26.4385 -4.14751,-35.097 0.82756,-3.97673 0.87962,-7.46921 0.1789,-12 C 0.34637859,282.82895 -0.80365841,247.93303 0.30628859,229.93281 1.4737186,211.00046 4.4264486,194.1294 6.8874586,192.32986 c 1.18929,-0.86963 1.52832,-3.26982 1.52832,-10.8199 0,-15.60843 1.9977404,-38.88405 3.4827204,-40.57715 0.72359,-0.825 1.86106,-5.775 2.5277,-11 0.66665,-5.225 2.05405,-12.80333 3.08313,-16.84074 2.39254,-9.38675 9.35344,-25.581652 13.04307,-30.345402 1.57025,-2.02738 4.26224,-7.575244 5.9822,-12.328588 2.96922,-8.205857 4.99967,-10.838148 6.84045,-8.868049 0.45366,0.485531 1.36683,8.532783 2.02927,17.882783 3.93577,55.551626 18.364,104.096056 40.92085,137.680036 11.49259,17.11086 19.926111,26.04484 45.661581,48.37122 14.3615,12.45909 24.36101,21.44867 32.39711,29.12507 4.13193,3.94698 7.61022,7.07871 7.72953,6.95939 0.11932,-0.11932 -0.25884,-4.69866 -0.84035,-10.17633 -2.90685,-27.38153 3.30614,-61.09293 16.39515,-88.95939 6.40456,-13.63529 19.27218,-34.1676 27.2615,-43.5 12.25016,-14.30953 34.04974,-34.93506 45.00465,-42.58085 16.45312,-11.48316 25.95999,-17.419146 27.89791,-17.419146 2.49149,0 2.79748,1.889946 0.77015,4.756826 -1.06691,1.50875 -4.22946,7.31579 -7.02788,12.90455 -30.40352,60.71927 -21.89822,134.52654 21.67469,188.08872 4.36236,5.36244 11.02194,12.6749 14.79907,16.2499 l 6.8675,6.5 8.5,-2.93051 c 7.84259,-2.70385 9.62146,-2.93355 23,-2.96984 14.28215,-0.0387 14.64799,0.0157 24.35025,3.62634 13.25574,4.93301 25.57529,12.60337 45.00223,28.01912 7.22122,5.73021 30.67599,24.73278 32.54002,26.36324 0.21588,0.18882 -0.13435,0.97813 -0.77827,1.75401 -0.66193,0.79757 -4.09223,1.71047 -7.8925,2.1004 -9.48378,0.97311 -20.03159,3.43964 -24.72173,5.78099 -4.24996,2.12161 -18.48906,12.61475 -18.51597,13.64487 -0.009,0.33626 -1.41054,2.18638 -3.115,4.11138 -5.02093,5.67059 -11.7438,15.45566 -13.48393,19.62574 -0.88918,2.13084 -3.56815,6.89266 -5.95326,10.58182 -8.08155,12.50004 -11.08178,20.48075 -17.46102,46.44689 -6.36504,25.90828 -14.21527,42.35592 -27.1839,56.95508 -9.40196,10.58407 -22.7666,20.82914 -35.63663,27.31834 -5.60892,2.82807 -6.26222,3.45652 -5.59981,5.38686 0.41243,1.2019 0.94158,5.15519 1.17587,8.78508 0.47399,7.34349 -1.51031,13.90019 -4.20671,13.90019 -1.73806,0 -2.06049,-0.67852 -2.99823,-6.30966 -0.72414,-4.34843 -6.73165,-11.69034 -9.56561,-11.69034 -0.99631,0 -6.00645,1.15423 -11.13364,2.56494 -5.12719,1.41072 -13.59716,3.34774 -18.82216,4.30448 -8.75909,1.60386 -9.52442,1.93026 -9.81307,4.18505 -0.47671,3.72374 -6.27278,18.77189 -7.68026,19.93999 -2.21104,1.835 -3.71614,-1.60862 -4.62586,-10.58382 -0.47856,-4.72137 -1.16231,-9.05709 -1.51944,-9.63495 -0.42395,-0.68597 -3.81006,-0.8333 -9.75535,-0.42446 -5.00831,0.3444 -23.54418,0.65458 -41.19082,0.68928 -34.3193,0.0675 -38.04296,0.47073 -48.70195,5.27416 -11.937,5.37936 -19.97238,11.91358 -44.713251,36.35998 -25.37555,25.07352 -28.96138,28.30338 -37.70196,33.95925 -6.51622,4.21653 -12.13269,4.53334 -17.31591,0.97674 z m 18.63956,-6.71223 c 5.77031,-3.73656 13.89863,-11.195 30.37831,-27.87478 24.505931,-24.80347 32.562191,-31.71711 44.000001,-37.75948 16.15479,-8.53425 13.87215,-8.2156 60.93184,-8.50578 23.04586,-0.1421 42.27624,-0.63306 42.73417,-1.09101 0.45794,-0.45796 -0.63668,-2.14546 -2.43248,-3.75 -4.07734,-3.64311 -10.51634,-4.12595 -12.23353,-0.91736 -1.42162,2.65632 -5.39838,2.56213 -7.96104,-0.18856 -3.86188,-4.14524 -1.83921,-9.76154 4.64622,-12.90108 3.87468,-1.8757 5.72387,-2.0749 16.09621,-1.73391 8.01656,0.26355 12.45223,0.84937 14.04083,1.8544 2.96287,1.87445 5.17778,7.09437 5.17778,12.20256 v 3.98917 l 3.75,-0.63635 c 8.30221,-1.40882 22.25,-4.9404 22.25,-5.63369 0,-0.40621 -0.675,-0.99758 -1.5,-1.31417 -1.01503,-0.3895 -1.5,-1.98112 -1.5,-4.92284 0,-4.05499 0.27835,-4.50369 4.14033,-6.67425 6.26284,-3.51991 13.28499,-3.22077 19.15203,0.81586 2.5124,1.72857 5.10651,3.14286 5.76471,3.14286 2.40439,0 16.67861,-8.44765 25.56695,-15.13083 22.57252,-16.97235 32.45919,-34.44167 42.93776,-75.86917 4.45719,-17.62169 9.27043,-30.31009 15.31076,-40.3614 2.68999,-4.47623 7.08162,-11.95142 9.75918,-16.61153 3.26831,-5.68827 8.18389,-11.93454 14.95676,-19.00567 11.03328,-11.51916 12.50406,-14.33724 14.36361,-27.5214 1.00793,-7.14618 0.47542,-16.63266 -1.1068,-19.71755 -1.45065,-2.82836 -19.73077,-15.2073 -28.84529,-19.53348 -12.70617,-6.03093 -20.39964,-7.53986 -35.72306,-7.00639 -24.17836,0.84173 -34.71237,6.73824 -68.27694,38.21868 -6.875,6.44811 -15.425,13.95053 -19,16.67203 -8.3597,6.36391 -20.62099,12.35237 -29.49543,14.40568 -3.84748,0.8902 -7.12275,1.74588 -7.27838,1.90151 -0.15563,0.15562 0.82395,3.38268 2.17683,7.17124 3.49044,9.77449 5.29948,17.72785 6.02398,26.48421 0.66796,8.07306 0.1641,10.90407 -1.94066,10.90407 -0.92521,0 -1.50524,-2.74162 -2.01307,-9.51518 -0.39236,-5.23335 -1.10936,-9.75991 -1.59333,-10.05902 -0.48397,-0.29911 -0.87994,-1.54802 -0.87994,-2.77535 0,-4.60049 -6.15726,-20.95687 -14.03255,-37.27656 -9.50381,-19.69444 -11.74721,-24.56271 -15.37936,-33.37389 -3.86016,-9.36428 -11.03543,-20.68682 -19.14552,-30.21155 -8.33898,-9.79353 -36.25823,-36.38453 -55.95028,-53.28845 -7.6886,-6.6 -17.16368,-15.15 -21.05574,-19 -25.549731,-25.27366 -43.573491,-60.02455 -54.458891,-105 -4.10384,-16.95592 -8.30589,-45.644347 -9.19329,-62.764867 -0.32589,-6.287215 -2.13675,-3.645465 -5.0313,7.339822 -6.92419,26.278465 -7.31823,48.136975 -1.35968,75.425045 2.03656,9.32676 3.91828,15.2171 8.30592,26 7.39047,18.16258 23.52607,40.71749 35.67115,49.8624 5.09497,3.83637 6.54629,6.83737 3.58265,7.40811 -2.46523,0.47476 -17.25712,-14.02089 -25.62063,-25.10751 -15.8064,-20.95289 -26.85726,-50.41315 -29.31979,-78.163 -1.27567,-14.37538 -0.58755,-33.9817 1.48284,-42.249996 1.956,-7.811458 0.22313,-6.353422 -3.42694,2.883426 -5.53524,14.00746 -7.12864,23.22531 -7.75565,44.86657 -0.75097,25.91963 1.40911,41.79925 8.60642,63.26906 11.00333,32.82331 32.27982,63.68813 51.47284,74.66926 5.71132,3.26769 6.74911,4.68649 4.15583,5.68162 -2.78083,1.06711 -12.10819,-5.17987 -21.08248,-14.11994 -23.52877,-23.43904 -42.38093,-63.18274 -45.99987,-96.97585 -1.47799,-13.80131 -2.46568,-6.88421 -2.46568,17.26798 0,23.17407 0.21221,26.1576 3.04491,42.80902 3.46541,20.37068 4.68668,25.06289 10.03317,38.54813 7.4421,18.77091 17.71252,34.3326 28.96448,43.88686 5.06855,4.3038 6.05172,6.32997 3.53933,7.29406 -0.87421,0.33547 -4.82593,-2.78767 -10.30338,-8.14301 -14.52664,-14.20281 -25.86769,-35.83195 -32.69718,-62.3586 -3.47762,-13.50751 -6.5104704,-35.12858 -6.6672804,-47.53077 -0.13455,-10.64121 -1.69534,-3.5756 -3.02681,13.70218 -1.67275,21.70654 0.26362,66.14887 3.5849,82.27802 2.2667804,11.00823 7.5258804,20.43813 16.3539004,29.3236 7.21049,7.25742 19.54849,16.34566 30.1165,22.18399 5.48668,3.03114 6.25132,4.05874 4.05224,5.44588 -1.0944,0.69034 -3.55076,-0.21913 -9,-3.33223 -19.40456,-11.08565 -33.51515,-24.1932 -40.00664,-37.16279 l -3.9881404,-7.96806 v 5.12638 c 0,13.59212 8.5472804,39.1334 16.7674904,50.10521 6.69091,8.93058 24.47085,23.41781 36.15692,29.46091 4.07525,2.1074 4.12006,2.06188 2.36607,-2.40335 -1.60871,-4.09538 -1.15937,-7.51386 0.89755,-6.82822 0.65283,0.21761 1.61452,1.71753 2.13709,3.33316 3.54049,10.94617 15.08085,18.34366 26.53694,17.01046 10.065051,-1.17132 10.637941,-1.15069 10.637941,0.38307 0,2.23581 -8.101961,4.24237 -15.000001,3.71495 -10.32992,-0.78982 -31.749,-11.37064 -48.15428,-23.78775 -3.61959,-2.73966 -6.76268,-4.7996 -6.98464,-4.57765 -0.22195,0.22196 1.02317,3.27914 2.76694,6.79373 8.7224,17.5801 25.46758,33.32111 42.87198,40.30104 4.12749,1.6553 20,3.54785 20,2.38468 0,-0.27542 -2.63395,-2.12652 -5.85322,-4.11357 -7.19479,-4.44088 -8.65727,-6.01306 -6.90911,-7.42734 0.91322,-0.73881 3.72656,0.4556 10.17272,4.31885 15.446931,9.25752 27.345361,9.83295 35.803451,1.73153 2.29261,-2.19593 2.95746,-2.39722 4.28332,-1.29686 1.40731,1.16797 1.33356,1.55538 -0.71385,3.74977 -4.6951,5.03215 -9.53285,6.70888 -19.78331,6.85672 -5.225,0.0754 -13.39413,0.23724 -18.153621,0.35973 -10.81884,0.27844 -18.10835,-1.32294 -27.50081,-6.04144 l -7.34557,-3.6902 v 2.92373 c 0,4.33048 3.18035,9.77291 8.67432,14.84405 9.01962,8.32547 17.32379,12.24768 26.08818,12.32194 8.574971,0.0727 9.378711,-1.14588 3.78122,-5.73261 -2.49905,-2.04777 -4.54372,-4.38223 -4.54372,-5.18766 0,-2.83242 2.6771,-2.44236 6.229101,0.90761 4.64141,4.37741 10.96972,7.3092 18.9516,8.77992 5.46426,1.00683 7.25454,0.92923 12.35477,-0.5355 3.28049,-0.94213 7.93371,-2.80212 10.34048,-4.13333 5.27729,-2.9189 6.12405,-2.99017 6.12405,-0.51539 0,2.54039 -7.15748,6.66437 -15.09645,8.69824 -6.55484,1.67927 -16.89672,1.26827 -21.56087,-0.85685 -1.79874,-0.81956 -3.2276,-0.65107 -6.32554,0.7459 -4.36129,1.96667 -11.107181,2.43972 -17.767141,1.24591 -2.93242,-0.52564 -4.25,-0.41313 -4.25,0.36291 0,2.13133 14.51004,15.62186 19.500001,18.12988 8.28456,4.16393 16.3281,6.11856 25.5,6.19666 12.27606,0.10452 20.43726,-2.51841 31.77,-10.21057 4.22447,-2.86738 5.51403,-3.32663 6.5,-2.31481 0.97939,1.00506 0.51687,1.86572 -2.27,4.22405 -4.97825,4.21275 -14.88403,9.5829 -20.39599,11.05712 l -4.70515,1.25844 0.80057,4.02907 c 2.38297,11.99289 -0.76655,24.89291 -8.33159,34.12504 -5.38522,6.57196 -16.28528,14.78768 -25.20586,18.99847 -4.21409,1.98918 -8.457251,4.02785 -9.429241,4.53038 -4.37189,2.2603 -19.2677,4.98882 -30.29183,5.54868 -33.06798,1.67933 -59.2417904,-8.9176 -83.805856,-33.93031 l -10.864946,-11.06339 0.716677,4.4101 c 0.961929,5.91926 7.135606,24.20283 10.268352,30.4101 3.53243,6.99921 10.2978656,15.53631 16.53463259,20.86455 11.18390041,9.5547 24.46521041,13.40988 42.21023041,12.25241 8.39589,-0.54765 14.06578,-1.4802 30.5,-5.0165 0.825,-0.17753 2.2875,-0.6584 3.25,-1.0686 2.25248,-0.95999 5.03681,0.10191 4.50641,1.71867 -0.56788,1.73103 -13.79102,5.37557 -26.1758,7.21453 -25.90603,3.84668 -44.04449,0.0152 -57.5925004,-12.16566 -2.630083,-2.36467 -5.03296,-4.2994 -5.339726,-4.2994 -1.150753,0 -1.85149,7.21882 -1.203883,12.4021 1.502009,12.02167 10.00950899,18.62969 26.6132694,20.67129 14.62299,1.79804 36.01099,-0.34851 49.94223,-5.01231 7.89852,-2.64422 13.64181,-3.44965 14.5157,-2.03568 1.38073,2.23407 -2.11097,3.94372 -13.02812,6.379 -27.15867,6.05825 -46.57199,7.02779 -60.9875804,3.04584 -9.284671,-2.56465 -8.961014,-2.69559 -9.298771,3.76178 -0.164324,3.14161 0.197389,7.55462 0.80380099,9.80668 1.58395001,5.88233 7.01790001,11.49784 12.44958041,12.86555 9.61059,2.41998 27.17099,0.59908 38.93327,-4.03711 5.327,-2.09968 20.58421,-10.96209 22.9572,-13.33508 0.75177,-0.75176 4.69416,-3.40089 8.76088,-5.88696 6.40692,-3.91667 7.58635,-4.33005 8.83452,-3.09642 0.79226,0.78304 1.24226,1.58424 1,1.78046 -4.20401,3.40503 -31.35349,20.45278 -36.06014,22.64295 -10.52854,4.89931 -25.65196,8.31546 -34.94458,7.89346 -5.15729,-0.2342 -7.93576,0.0113 -7.93576,0.70126 0,3.40361 13.34964,20.47556 18.43707,23.57792 4.73361,2.88659 7.63895,2.30742 16.18462,-3.22632 z M 213.10095,447.18281 c -0.23807,-0.4125 -0.0126,-3.9 0.50112,-7.75 1.14553,-8.58546 0.32064,-21.95286 -1.78058,-28.8545 -4.57317,-15.02094 -9.12394,-22.99698 -20.33775,-35.6455 -12.36817,-13.95058 -15.33233,-17.86867 -14.72183,-19.45962 0.32511,-0.84721 0.98971,-1.54038 1.47689,-1.54038 1.13986,0 11.76877,11.92388 20.43357,22.92309 7.89223,10.0185 12.38553,18.28096 16.35645,30.07691 2.6384,7.83757 2.85944,9.6411 2.8362,23.14207 -0.0184,10.70709 -0.38384,15.0742 -1.35967,16.25 -1.43894,1.73382 -2.7135,2.05502 -3.4044,0.85793 z m 145.08997,-83.75938 c -3.54822,-1.9899 -4.77514,-4.4232 -4.77514,-9.47033 0,-5.86999 3.32883,-9.02029 9.53147,-9.02029 9.31375,0 13.78814,9.28609 7.71853,16.01895 -3.31841,3.68103 -8.491,4.70589 -12.47486,2.47167 z M 237.73981,590.18281 c 0.57113,-2.96526 0.40746,-3.25 -1.86808,-3.25 -2.64953,0 -2.62017,-0.26821 -0.84823,7.75 0.54896,2.48407 0.67941,2.5566 1.34903,0.75 0.40772,-1.1 1.02299,-3.4625 1.36728,-5.25 z m 0.67597,-12.59501 c 0,-7.82904 -1.7445,-9.06408 -13.41185,-9.49501 -11.61422,-0.42896 -17.32914,0.95984 -18.19819,4.42243 -0.8441,3.36317 -0.22842,3.73544 3.21126,1.94164 6.37328,-3.32369 15.14611,-1.02546 19.31613,5.06028 1.8838,2.74923 2.9982,3.41567 5.71155,3.41567 h 3.3711 z m 57,2.53614 c 0,-4.05493 -2.14323,-6.59783 -4.83956,-5.74205 l -2.18717,0.69418 2.76336,3.90702 c 3.29056,4.65239 4.26337,4.91271 4.26337,1.14085 z m -9.5529,-8.73347 c 4.36494,-1.82379 4.21118,-3.35773 -0.50747,-5.06269 -5.01954,-1.81367 -9.40377,-1.64947 -11.9956,0.44927 -3.32915,2.69578 -1.97533,4.95285 3.2515,5.42089 2.36746,0.212 4.58701,0.46407 4.93235,0.56016 0.34533,0.0961 2.28898,-0.51934 4.31922,-1.36763 z M 236.65095,391.00054 c 14.20435,-3.63286 28.23946,-13.27709 51.53953,-35.4154 8.95108,-8.50478 19.86176,-17.86015 24.24597,-20.78971 l 7.97127,-5.32648 -7.35835,-7.51807 c -19.73643,-20.16484 -31.94622,-38.69249 -41.09075,-62.35288 -5.4255,-14.03783 -8.08843,-23.80853 -10.08202,-36.99248 -5.45163,-36.05262 -0.9975,-69.53637 13.72441,-103.17271 2.16651,-4.95 4.21161,-9.63371 4.54465,-10.40824 2.00045,-4.65222 -28.39573,17.98647 -42.37302,31.5589 -15.25982,14.81781 -26.13251,28.3596 -36.25155,45.15085 -12.28009,20.37723 -21.44692,44.76744 -25.25593,67.19849 -1.6342,9.62371 -1.61647,39.548 0.0284,47.88658 1.12537,5.70514 2.09779,7.41234 9.11359,16 10.05302,12.30535 18.14691,25.24488 21.51622,34.39751 1.461,3.96875 5.99448,14.04167 10.0744,22.38428 4.07992,8.3426 7.41804,15.5651 7.41804,16.05 0,1.25224 2.18919,3.28163 3.54004,3.28163 0.62702,0 4.53983,-0.86952 8.69513,-1.93227 z m 186.94267,-5.6597 c 4.07499,-2.10725 11.15336,-4.11934 17.32216,-4.92397 6.48463,-0.84583 8.68134,-1.48003 8.30505,-2.3977 -0.62056,-1.51338 -24.79633,-21.08636 -26.04503,-21.08636 -0.33853,0 -0.39236,2.3625 -0.11961,5.25 0.45398,4.80617 -1.46319,18.79945 -3.15116,23 -0.86805,2.16017 -0.23551,2.18727 3.68859,0.15803 z"
       id="path882" /></g></svg>
