<?xml version="1.0" encoding="UTF-8"?>
<svg width="920" height="807" version="1.1" viewBox="0 0 243 214" xml:space="preserve" xmlns="http://www.w3.org/2000/svg"><g transform="translate(63.2 -1.81)"><path d="m21.6 210c-0.0851-0.0851-0.0832-0.439 0.0041-0.787l0.159-0.633-2.88 0.172c-1.58 0.0943-4.07 0.283-5.52 0.42s-3.33 0.313-4.18 0.392c-1.91 0.179-2.3-0.105-2.3-1.65 0-1.01-0.0831-1.17-0.657-1.32-0.395-0.0993-1.47 0.0991-2.71 0.498-1.13 0.365-2.1 0.619-2.16 0.565-0.267-0.258 0.891-1.49 1.89-2.02 0.934-0.49 1.57-0.592 3.82-0.612 2.36-0.0202 2.78-0.0944 3.31-0.577 0.651-0.597 2.77-1.14 4.45-1.14 1.17 0 2.1-0.708 2.1-1.59 0-0.662-0.699-0.692-1.97-0.0849-1.04 0.494-1.33 0.384-1.08-0.403 0.416-1.31 1.16-1.84 3.03-2.15 1.63-0.274 2.02-0.249 3.64 0.233 1.82 0.542 2.64 0.513 3.66-0.127 0.291-0.183 1.24-0.415 2.12-0.516s1.96-0.412 2.42-0.689c1.27-0.767 3.98-3.79 4.58-5.11 0.293-0.643 0.655-1.25 0.805-1.34 0.326-0.202 2.03-3.54 2.53-4.95 0.195-0.554 0.649-1.39 1.01-1.86 0.359-0.471 1.56-3.28 2.67-6.25 1.11-2.97 2.41-6.18 2.89-7.14l0.873-1.75-0.85-3.06c-1.19-4.28-2.71-8.78-3.7-11-0.836-1.83-0.865-1.86-3.07-3.02-3.91-2.05-8.42-5.4-14-10.4-3.16-2.82-7.24-6.14-9.76-7.95-8.21-5.88-14.3-12.4-17.8-19.1-3.32-6.32-5.62-13-7.87-22.9-1.09-4.82-1.44-9.75-1.21-17.4l0.186-6.41-1.5-8.14c-1.46-7.88-1.55-8.24-2.94-11.3-0.949-2.1-1.66-4.2-2.11-6.22-0.887-3.96-1.15-4.7-2.38-6.61-0.827-1.29-1.49-1.9-3.41-3.16-2.1-1.38-2.61-1.6-4.37-1.85-3.32-0.473-10.3-1.08-12.6-1.08-2.01-0.0054-12.2-1.39-12.5-1.7-0.274-0.274 0.464-1.49 1.72-2.84 1.3-1.39 3.36-2.91 5.26-3.88 2.79-1.42 9.7-3.71 16.1-5.33 4.74-1.2 7.46-2.3 11.2-4.51 6.4-3.74 7.89-4.2 14.2-4.4 5.9-0.188 7.77 0.0731 11.7 1.63 5.83 2.32 11.5 6.19 13.1 8.97 0.467 0.816 1.76 2.61 2.88 3.99 2.17 2.68 5.12 7.73 6.02 10.3 0.304 0.873 1.33 3.49 2.27 5.82 0.945 2.33 2 5.25 2.34 6.48 1.42 5.17 2.24 6.8 5.21 10.4 4.42 5.31 18.1 18.2 24.7 23.2 2.1 1.61 6.99 5.72 7.54 6.34 0.291 0.327 1.3 0.985 2.25 1.46 0.946 0.478 2.87 1.7 4.28 2.72 1.41 1.02 2.84 1.94 3.18 2.05 0.339 0.106 0.974 0.482 1.41 0.835 0.437 0.353 1.87 1.39 3.18 2.29 5.77 4 16.2 11.6 20.4 14.8 2.47 1.92 6.34 4.87 8.6 6.55 5.37 4 9.9 8.64 11.4 11.7 0.439 0.879 1.04 1.86 1.33 2.17 0.415 0.452 0.54 1 0.588 2.58 0.0545 1.8 0.148 2.12 0.906 3.13 0.465 0.616 1.32 1.84 1.89 2.73 0.574 0.883 1.34 1.76 1.7 1.96 0.363 0.194 0.963 0.79 1.33 1.32 0.37 0.534 1.12 1.22 1.66 1.53s1.29 0.876 1.65 1.27c0.363 0.39 1.57 1.3 2.69 2.01s2.18 1.49 2.36 1.71c0.185 0.223 0.816 0.65 1.4 0.949 0.585 0.298 1.29 0.826 1.56 1.17 0.272 0.346 0.694 0.631 0.938 0.634 0.893 0.0117 2.7 1.04 3 1.71 0.171 0.375 0.945 1.04 1.72 1.49s1.41 0.906 1.41 1.03c0 0.121 0.764 0.578 1.7 1.01 0.934 0.437 1.82 1.03 1.98 1.32 0.155 0.291 0.88 0.896 1.61 1.34 0.73 0.449 1.33 0.933 1.33 1.08 0 0.142 0.625 0.68 1.39 1.19 5.53 3.72 8.03 5.8 8.82 7.34 0.426 0.822 0.491 2.22 0.113 2.46-0.141 0.0873-0.617-0.0278-1.06-0.256-0.929-0.481-0.992-0.355-0.307 0.617 0.747 1.06 1.68 2.98 1.52 3.14-0.0765 0.0765-0.889-0.517-1.8-1.32-2.14-1.87-9.24-6.28-10.1-6.28-0.538 0 0.179 0.721 2.18 2.19 1.27 0.936 3.92 3.04 5.88 4.68 1.96 1.64 4.88 3.96 6.48 5.16s3.51 2.82 4.24 3.6c1.15 1.24 1.26 1.43 0.794 1.52-0.291 0.0558-0.605 0.222-0.698 0.369-0.0999 0.159-0.673-0.0797-1.41-0.585-0.682-0.469-1.3-0.795-1.37-0.724-0.0709 0.0709 0.265 0.399 0.746 0.73 1.18 0.809 2.33 1.88 2.33 2.18 0 0.131-0.566-0.173-1.26-0.675-0.691-0.502-1.53-1.06-1.87-1.23-0.944-0.492-2.96-1.05-2.96-0.819 0 0.114 0.939 0.946 2.09 1.85 1.59 1.26 2.05 1.76 1.95 2.15-0.205 0.786-0.942 0.606-2.62-0.643-0.851-0.631-1.73-1.21-1.94-1.29-0.218-0.0787-1.4-0.753-2.62-1.5-1.22-0.745-2.32-1.35-2.44-1.35-0.573 0 0.256 0.801 2.19 2.12 2.23 1.52 4.19 3.25 4.19 3.7 0 0.569-1.09 0.214-2.69-0.876-0.921-0.627-3.19-2.21-5.05-3.51-1.86-1.3-4.24-2.89-5.29-3.53-2.39-1.45-4.97-2.94-5.11-2.94-0.0578 0 0.313 0.548 0.824 1.22 2.06 2.7 1.75 2.88-1.33 0.751-4.81-3.32-12.3-8.18-14.3-9.25-0.582-0.317-2.25-1.42-3.7-2.46-6.34-4.52-8.42-5.79-9.79-5.98-3.49-0.489-8.36-2.11-14.9-4.99-1.96-0.858-4.15-1.66-4.85-1.79s-1.95-0.423-2.78-0.663c-0.825-0.24-2.99-0.768-4.81-1.17-1.97-0.438-4.32-1.19-5.82-1.85-1.38-0.612-3.33-1.4-4.33-1.74-1.67-0.581-1.87-0.599-2.58-0.234-0.422 0.218-0.767 0.513-0.767 0.655 0 0.142-0.139 0.258-0.31 0.258s-0.498 0.157-0.728 0.35c-0.583 0.489-2.17 0.915-4.65 1.25-2.88 0.386-4.56 0.963-5.07 1.73-0.23 0.35-0.595 0.637-0.812 0.637-0.242 0-0.336 0.153-0.242 0.397 0.283 0.738-0.118 1.19-1.06 1.19-0.721 0-0.955 0.134-1.16 0.661-0.297 0.781-0.214 0.766-1.43 0.256-0.534-0.223-1.09-0.332-1.23-0.242-0.145 0.0899-0.438 0.0196-0.65-0.156-0.305-0.254-0.386-0.245-0.39 0.0434-0.0024 0.2-0.252-0.0238-0.555-0.497-0.727-1.13-1.1-1.1-0.618 0.0576 0.491 1.17 0.487 1.2-0.164 1.2-0.401 0-0.508-0.124-0.4-0.464 0.161-0.507-0.734-2.18-1.17-2.18-0.154 0-0.268 0.733-0.268 1.72 0 1.53-0.0579 1.72-0.514 1.72-0.282 0-0.587-0.119-0.677-0.265-0.0899-0.146-0.395-0.265-0.677-0.265-0.741 0-0.672 1.1 0.309 4.89 1.2 4.65 1.33 5.42 1.14 6.84-0.145 1.09-0.304 1.36-1.04 1.8-0.739 0.436-0.972 0.841-1.55 2.71-0.38 1.22-0.936 2.42-1.25 2.7-0.312 0.28-1.72 1.88-3.13 3.55-6.12 7.26-12.2 16.5-11.4 17.3 0.327 0.327 2.64 0.655 4.84 0.687 1.34 0.0198 1.57-0.0541 1.96-0.649 0.937-1.43 4.54-2.38 6.53-1.73 1.43 0.471 3.01 2.35 3.24 3.82 0.309 2.06 0.0016 2.24-1.21 0.715-0.585-0.741-1.52-1.65-2.08-2.02l-1.02-0.672-1.18 0.629c-1.04 0.55-1.15 0.703-0.962 1.22 0.121 0.327 0.154 0.859 0.0733 1.18-0.12 0.48 0.0907 0.739 1.17 1.44 1.42 0.92 2.25 2.05 2.5 3.41 0.252 1.35-0.294 1.31-1.77-0.142-1.43-1.4-2.36-1.9-3.58-1.9-1.19 0-1.74 0.581-1.67 1.78 0.0423 0.717-0.106 1.26-0.473 1.72-0.538 0.684-1.21 0.869-3.98 1.09-0.655 0.0512-2.98 0.233-5.16 0.404-2.41 0.189-5.27 0.613-7.28 1.08-3.99 0.931-6.24 1.34-7.34 1.34-0.455 0-1.12 0.111-1.48 0.248s-0.721 0.178-0.806 0.093z" stroke-width=".265"/></g></svg>
